{"title":"Doctor.Who.2005.S06E12.Closing.Time.HDTV.272p.H264.AAC-k3n.m4v","uid":6699562,"size":98040129,"categoryP":"video","categoryS":"tv_shows","magnet":"?xt=urn:btih:9e6ca94a1c7f86827167345b523d1f6bcc94e259&amp;dn=Doctor.Who.2005.S06E12.Closing.Time.HDTV.272p.H264.AAC-k3n.m4v&amp;tr=udp%3A%2F%2Ftracker.openbittorrent.com%3A80&amp;tr=udp%3A%2F%2Fopen.demonii.com%3A1337&amp;tr=udp%3A%2F%2Ftracker.coppersurfer.tk%3A6969&amp;tr=udp%3A%2F%2Fexodus.desync.com%3A6969","seeders":0,"leechers":0,"uploader":"k3nd00d","files":-1,"time":1316909417,"description":"NOTE:\nThis is not an HD file. The _source_ is HDTV. As the name of the file, the name of the torrent and the details below tell you, this is 272p video. A small resolution of acceptable quality that is playable on more devices than most video files. This file should be playable on all modern PCs including those with Windows, Mac OS, or GNU/Linux variants, Android smartphones, iPhones, iPod4 and up, iPad1 or 2, Android tablets, PSPs, generic PMP and MID devices, Windows Phone 7, Windows CE/Windows Mobile phones, other smart and some not-so-smart phones, XBox 360, Wii, PS3, BluRay players, many DVD players and probably your smart toaster. DO NOT EXPECT THIS SMALL VIDEO FILE TO PLAY IN Hi-Def ON YOUR 50&quot; PLASMA BRAIN DRAIN SCREEN.\n\nGeneral\nFormat                           : MPEG-4\nFormat profile                   : Base Media / Version 2\nCodec ID                         : mp42\nFile size                        : 93.5 MiB\nDuration                         : 45mn 4s\nOverall bit rate                 : 290 Kbps\n\nVideo\nID                               : 1\nFormat                           : AVC\nFormat/Info                      : Advanced Video Codec\nFormat profile                   : &lt;a class=&quot;__cf_email__&quot; href=&quot;/cdn-cgi/l/email-protection&quot; data-cfemail=&quot;682a091b0d0401060d28245a4659&quot;&gt;[email&amp;#160;protected]&lt;/a&gt;&lt;script data-cfhash='f9e31' type=&quot;text/javascript&quot;&gt;\n/* &lt;![CDATA[ */!function(){try{var t=&quot;currentScript&quot;in document?document.currentScript:function(){for(var t=document.getElementsByTagName(&quot;script&quot;),e=t.length;e--;)if(t[e].getAttribute(&quot;data-cfhash&quot;))return t[e]}();if(t&amp;&amp;t.previousSibling){var e,r,n,i,c=t.previousSibling,a=c.getAttribute(&quot;data-cfemail&quot;);if(a){for(e=&quot;&quot;,r=parseInt(a.substr(0,2),16),n=2;a.length-n;n+=2)i=parseInt(a.substr(n,2),16)^r,e+=String.fromCharCode(i);e=document.createTextNode(e),c.parentNode.replaceChild(e,c)}t.parentNode.removeChild(t);}}catch(u){}}()/* ]]&gt; */&lt;/script&gt;\nFormat settings, CABAC           : No\nFormat settings, ReFrames        : 2 frames\nCodec ID                         : avc1\nCodec ID/Info                    : Advanced Video Coding\nDuration                         : 45mn 4s\nBit rate mode                    : Variable\nBit rate                         : 240 Kbps\nWidth                            : 480 pixels\nHeight                           : 272 pixels\nDisplay aspect ratio             : 16:9\nFrame rate mode                  : Variable\nFrame rate                       : 25.000 fps\nMinimum frame rate               : 12.500 fps\nMaximum frame rate               : 25.000 fps\nColor space                      : YUV\nChroma subsampling               : 4:2:0\nBit depth                        : 8 bits\nScan type                        : Progressive\nBits/(Pixel*Frame)               : 0.074\nStream size                      : 77.3 MiB (83%)\nWriting library                  : x264 core 79\n\nAudio\nID                               : 2\nFormat                           : AAC\nFormat/Info                      : Advanced Audio Codec\nFormat profile                   : LC\nCodec ID                         : 40\nDuration                         : 45mn 4s\nBit rate mode                    : Variable\nBit rate                         : 48.0 Kbps\nMaximum bit rate                 : 73.3 Kbps\nChannel(s)                       : 2 channels\nChannel positions                : Front: L R\nSampling rate                    : 24.0 KHz\nCompression mode                 : Lossy\nStream size                      : 15.5 MiB (17%)\n","torrent":{"xt":"urn:btih:9e6ca94a1c7f86827167345b523d1f6bcc94e259","amp;dn":"Doctor.Who.2005.S06E12.Closing.Time.HDTV.272p.H264.AAC-k3n.m4v","amp;tr":["udp%3A%2F%2Ftracker.openbittorrent.com%3A80","udp%3A%2F%2Fopen.demonii.com%3A1337","udp%3A%2F%2Ftracker.coppersurfer.tk%3A6969","udp%3A%2F%2Fexodus.desync.com%3A6969"],"infoHash":"9e6ca94a1c7f86827167345b523d1f6bcc94e259","infoHashBuffer":{"type":"Buffer","data":[158,108,169,74,28,127,134,130,113,103,52,91,82,61,31,107,204,148,226,89]},"announce":[],"urlList":[]}}